<svg width="151" height="92" viewBox="0 0 151 92" fill="none" xmlns="http://www.w3.org/2000/svg">
<path d="M95.8151 1H42.7231L95.8151 54.0877H145.482L95.8151 1Z" fill="#221E58"/>
<path d="M44.8161 1.7807L2 53.307" stroke="#11175B" stroke-width="3"/>
<path d="M24.2645 14.6623V25.2017L16.5576 33.7895V14.6623H24.2645Z" fill="#221E58" stroke="#11175B" stroke-width="3"/>
<rect x="35.3965" y="27.5439" width="6.85057" height="6.24561" fill="#E88584"/>
<rect x="47.3853" y="27.5438" width="6.85057" height="6.24561" fill="#E88584"/>
<rect x="35.3965" y="40.0351" width="6.85057" height="6.24561" fill="#E88584"/>
<rect x="47.3853" y="40.0351" width="6.85057" height="6.24561" fill="#E88584"/>
<path d="M13.0078 72.696C13.0078 72.3308 12.9505 72.0085 12.8359 71.7292C12.7285 71.4428 12.5352 71.1849 12.2559 70.9558C11.9837 70.7266 11.6042 70.5082 11.1172 70.3005C10.6374 70.0928 10.0286 69.8816 9.29102 69.6667C8.51758 69.4376 7.81934 69.1833 7.19629 68.904C6.57324 68.6176 6.03971 68.2917 5.5957 67.9265C5.15169 67.5612 4.81152 67.1423 4.5752 66.6696C4.33887 66.197 4.2207 65.6563 4.2207 65.0476C4.2207 64.4389 4.34603 63.8767 4.59668 63.3611C4.84733 62.8454 5.2054 62.3978 5.6709 62.0183C6.14355 61.6316 6.70573 61.3308 7.35742 61.1159C8.00911 60.9011 8.736 60.7937 9.53809 60.7937C10.7126 60.7937 11.708 61.0193 12.5244 61.4704C13.348 61.9144 13.9746 62.4981 14.4043 63.2214C14.834 63.9376 15.0488 64.7038 15.0488 65.5202H12.9863C12.9863 64.933 12.861 64.4138 12.6104 63.9626C12.3597 63.5043 11.9801 63.1462 11.4717 62.8884C10.9632 62.6234 10.3187 62.4909 9.53809 62.4909C8.80046 62.4909 8.19173 62.6019 7.71191 62.8239C7.2321 63.0459 6.87402 63.3467 6.6377 63.7263C6.40853 64.1058 6.29395 64.5391 6.29395 65.0261C6.29395 65.3555 6.36198 65.6563 6.49805 65.9284C6.64128 66.1934 6.8597 66.4405 7.15332 66.6696C7.4541 66.8988 7.83366 67.1101 8.29199 67.3034C8.75749 67.4968 9.3125 67.683 9.95703 67.862C10.8451 68.1127 11.6113 68.392 12.2559 68.6999C12.9004 69.0079 13.4303 69.3552 13.8457 69.7419C14.2682 70.1215 14.5798 70.5547 14.7803 71.0417C14.988 71.5215 15.0918 72.0658 15.0918 72.6745C15.0918 73.3119 14.9629 73.8884 14.7051 74.404C14.4473 74.9196 14.0785 75.3601 13.5986 75.7253C13.1188 76.0905 12.5423 76.3734 11.8691 76.5739C11.2031 76.7673 10.4583 76.864 9.63477 76.864C8.91146 76.864 8.19889 76.7637 7.49707 76.5632C6.80241 76.3627 6.16862 76.0619 5.5957 75.6609C5.02995 75.2598 4.5752 74.7657 4.23145 74.1784C3.89486 73.584 3.72656 72.8965 3.72656 72.1159H5.78906C5.78906 72.653 5.8929 73.115 6.10059 73.5017C6.30827 73.8812 6.59115 74.1963 6.94922 74.447C7.31445 74.6976 7.72624 74.8838 8.18457 75.0056C8.65007 75.1202 9.13346 75.1775 9.63477 75.1775C10.3581 75.1775 10.9704 75.0772 11.4717 74.8767C11.973 74.6762 12.3525 74.3897 12.6104 74.0173C12.8753 73.6449 13.0078 73.2045 13.0078 72.696ZM27.1398 65.0261V66.5515H20.8556V65.0261H27.1398ZM22.9826 62.2009H24.9699V73.7702C24.9699 74.1641 25.0308 74.4613 25.1525 74.6618C25.2742 74.8624 25.4318 74.9948 25.6252 75.0593C25.8185 75.1237 26.0262 75.156 26.2482 75.156C26.4129 75.156 26.5848 75.1417 26.7638 75.113C26.95 75.0772 27.0897 75.0486 27.1828 75.0271L27.1935 76.6491C27.036 76.6993 26.8283 76.7458 26.5705 76.7888C26.3198 76.8389 26.0155 76.864 25.6574 76.864C25.1704 76.864 24.7228 76.7673 24.3146 76.5739C23.9064 76.3806 23.5806 76.0583 23.3371 75.6071C23.1007 75.1488 22.9826 74.5329 22.9826 73.7595V62.2009ZM41.4222 73.9636V65.0261H43.4202V76.6491H41.5189L41.4222 73.9636ZM41.7982 71.5144L42.6253 71.4929C42.6253 72.2663 42.543 72.9825 42.3782 73.6413C42.2207 74.293 41.9629 74.8588 41.6048 75.3386C41.2467 75.8184 40.7777 76.1944 40.1976 76.4665C39.6175 76.7315 38.9121 76.864 38.0814 76.864C37.5156 76.864 36.9964 76.7816 36.5238 76.6169C36.0583 76.4522 35.6572 76.198 35.3206 75.8542C34.984 75.5105 34.7226 75.0629 34.5364 74.5114C34.3574 73.96 34.2679 73.2976 34.2679 72.5241V65.0261H36.2552V72.5456C36.2552 73.0684 36.3125 73.5017 36.4271 73.8454C36.5488 74.182 36.7099 74.4506 36.9105 74.6511C37.1182 74.8445 37.3473 74.9805 37.598 75.0593C37.8558 75.1381 38.1208 75.1775 38.3929 75.1775C39.2379 75.1775 39.9075 75.0163 40.4017 74.6941C40.8958 74.3646 41.2503 73.9242 41.4652 73.3728C41.6872 72.8142 41.7982 72.1947 41.7982 71.5144ZM58.6157 74.3933V60.1491H60.6138V76.6491H58.7876L58.6157 74.3933ZM50.7954 70.9665V70.7409C50.7954 69.8529 50.9028 69.0473 51.1177 68.3239C51.3397 67.5935 51.6512 66.9668 52.0522 66.4441C52.4604 65.9213 52.9438 65.5202 53.5024 65.2409C54.0682 64.9545 54.6984 64.8112 55.393 64.8112C56.1235 64.8112 56.7609 64.9402 57.3052 65.198C57.8566 65.4486 58.3221 65.8174 58.7016 66.3044C59.0884 66.7842 59.3927 67.3643 59.6147 68.0446C59.8367 68.725 59.9907 69.4948 60.0766 70.3542V71.3425C59.9979 72.1947 59.8439 72.961 59.6147 73.6413C59.3927 74.3217 59.0884 74.9017 58.7016 75.3816C58.3221 75.8614 57.8566 76.2302 57.3052 76.488C56.7537 76.7387 56.1092 76.864 55.3716 76.864C54.6912 76.864 54.0682 76.7172 53.5024 76.4236C52.9438 76.1299 52.4604 75.7181 52.0522 75.1882C51.6512 74.6583 51.3397 74.0352 51.1177 73.3191C50.9028 72.5958 50.7954 71.8116 50.7954 70.9665ZM52.7934 70.7409V70.9665C52.7934 71.5466 52.8507 72.0909 52.9653 72.5993C53.0871 73.1078 53.2733 73.5554 53.5239 73.9421C53.7746 74.3288 54.0932 74.6332 54.48 74.8552C54.8667 75.07 55.3286 75.1775 55.8657 75.1775C56.5246 75.1775 57.0652 75.0378 57.4878 74.7585C57.9175 74.4792 58.2612 74.1104 58.519 73.6521C58.7768 73.1937 58.9774 72.696 59.1206 72.1589V69.57C59.0346 69.1762 58.9093 68.7966 58.7446 68.4314C58.5871 68.059 58.3794 67.7295 58.1216 67.4431C57.8709 67.1495 57.5594 66.9167 57.187 66.7448C56.8218 66.573 56.3885 66.487 55.8872 66.487C55.3429 66.487 54.8738 66.6016 54.48 66.8308C54.0932 67.0528 53.7746 67.3607 53.5239 67.7546C53.2733 68.1413 53.0871 68.5925 52.9653 69.1081C52.8507 69.6166 52.7934 70.1609 52.7934 70.7409ZM71.8131 75.446L75.0465 65.0261H77.1735L72.5114 78.4431C72.4039 78.7295 72.2607 79.0375 72.0817 79.3669C71.9098 79.7035 71.6878 80.0222 71.4157 80.323C71.1435 80.6237 70.8141 80.8672 70.4274 81.0534C70.0478 81.2468 69.5931 81.3435 69.0631 81.3435C68.9056 81.3435 68.7051 81.322 68.4616 81.279C68.2181 81.2361 68.0462 81.2002 67.9459 81.1716L67.9352 79.5603C67.9925 79.5674 68.082 79.5746 68.2038 79.5818C68.3327 79.5961 68.4222 79.6032 68.4723 79.6032C68.9235 79.6032 69.3066 79.5424 69.6217 79.4206C69.9368 79.306 70.2018 79.1091 70.4166 78.8298C70.6386 78.5577 70.8284 78.1817 70.986 77.7019L71.8131 75.446ZM69.4391 65.0261L72.4577 74.0495L72.9733 76.1443L71.5446 76.8747L67.2692 65.0261H69.4391ZM84.1082 61.0085H89.2859C90.4604 61.0085 91.4523 61.1876 92.2615 61.5456C93.0779 61.9037 93.6974 62.4336 94.1199 63.1355C94.5496 63.8301 94.7645 64.6859 94.7645 65.7029C94.7645 66.419 94.6176 67.0743 94.324 67.6687C94.0376 68.2559 93.6222 68.7572 93.0779 69.1726C92.5408 69.5808 91.8963 69.8851 91.1443 70.0857L90.5643 70.3112H85.698L85.6766 68.6247H89.3504C90.0952 68.6247 90.7146 68.4958 91.2088 68.238C91.7029 67.973 92.0753 67.6185 92.326 67.1745C92.5766 66.7305 92.702 66.24 92.702 65.7029C92.702 65.1013 92.5838 64.5749 92.3475 64.1237C92.1111 63.6726 91.7387 63.3252 91.2303 63.0818C90.729 62.8311 90.0809 62.7058 89.2859 62.7058H86.1814V76.6491H84.1082V61.0085ZM93.2498 76.6491L89.4471 69.5593L91.6062 69.5486L95.4627 76.5202V76.6491H93.2498ZM107.027 76.864C106.218 76.864 105.484 76.7279 104.825 76.4558C104.173 76.1765 103.611 75.7862 103.139 75.2849C102.673 74.7836 102.315 74.1892 102.064 73.5017C101.814 72.8142 101.688 72.0622 101.688 71.2458V70.7946C101.688 69.8493 101.828 69.0079 102.107 68.2702C102.387 67.5254 102.766 66.8952 103.246 66.3796C103.726 65.864 104.27 65.4737 104.879 65.2087C105.488 64.9437 106.118 64.8112 106.769 64.8112C107.6 64.8112 108.316 64.9545 108.918 65.2409C109.527 65.5274 110.024 65.9284 110.411 66.4441C110.798 66.9525 111.084 67.5541 111.27 68.2487C111.457 68.9362 111.55 69.6882 111.55 70.5046V71.3962H102.87V69.7741H109.562V69.6237C109.534 69.1081 109.426 68.6068 109.24 68.1198C109.061 67.6329 108.775 67.2318 108.381 66.9167C107.987 66.6016 107.45 66.4441 106.769 66.4441C106.318 66.4441 105.903 66.5407 105.523 66.7341C105.144 66.9203 104.818 67.1996 104.546 67.572C104.274 67.9444 104.062 68.3991 103.912 68.9362C103.762 69.4734 103.686 70.0928 103.686 70.7946V71.2458C103.686 71.7973 103.762 72.3165 103.912 72.8034C104.07 73.2833 104.295 73.7058 104.589 74.071C104.89 74.4362 105.251 74.7227 105.674 74.9304C106.103 75.1381 106.59 75.2419 107.135 75.2419C107.837 75.2419 108.431 75.0987 108.918 74.8122C109.405 74.5258 109.831 74.1426 110.196 73.6628L111.399 74.6189C111.149 74.9984 110.83 75.3601 110.443 75.7038C110.057 76.0476 109.58 76.3269 109.015 76.5417C108.456 76.7566 107.794 76.864 107.027 76.864ZM120.697 67.5075V76.6491H118.71V65.0261H120.59L120.697 67.5075ZM120.225 70.3972L119.398 70.365C119.405 69.57 119.523 68.836 119.752 68.1628C119.981 67.4825 120.304 66.8917 120.719 66.3904C121.134 65.889 121.628 65.5023 122.201 65.2302C122.781 64.9509 123.422 64.8112 124.124 64.8112C124.697 64.8112 125.213 64.89 125.671 65.0476C126.129 65.198 126.52 65.4415 126.842 65.778C127.171 66.1146 127.422 66.5515 127.594 67.0886C127.766 67.6185 127.852 68.2667 127.852 69.0329V76.6491H125.854V69.0114C125.854 68.4027 125.764 67.9157 125.585 67.5505C125.406 67.1781 125.145 66.9096 124.801 66.7448C124.457 66.573 124.035 66.487 123.533 66.487C123.039 66.487 122.588 66.5909 122.18 66.7986C121.779 67.0062 121.431 67.2927 121.138 67.6579C120.851 68.0232 120.626 68.4421 120.461 68.9148C120.304 69.3803 120.225 69.8744 120.225 70.3972ZM140.576 65.0261V66.5515H134.292V65.0261H140.576ZM136.419 62.2009H138.407V73.7702C138.407 74.1641 138.467 74.4613 138.589 74.6618C138.711 74.8624 138.868 74.9948 139.062 75.0593C139.255 75.1237 139.463 75.156 139.685 75.156C139.85 75.156 140.021 75.1417 140.2 75.113C140.387 75.0772 140.526 75.0486 140.619 75.0271L140.63 76.6491C140.473 76.6993 140.265 76.7458 140.007 76.7888C139.756 76.8389 139.452 76.864 139.094 76.864C138.607 76.864 138.159 76.7673 137.751 76.5739C137.343 76.3806 137.017 76.0583 136.774 75.6071C136.537 75.1488 136.419 74.5329 136.419 73.7595V62.2009Z" fill="#221E58"/>
<path d="M2 52.5263V90H145.006" stroke="#11175B" stroke-width="3"/>
</svg>
