<svg width="138" height="76" viewBox="0 0 138 76" fill="none" xmlns="http://www.w3.org/2000/svg">
<path d="M88.7588 1H40.299L88.7588 44.5439H134.092L88.7588 1Z" fill="#B5D2D9"/>
<path d="M41.0805 1.64038L2 43.9035" stroke="#B5D2D9" stroke-width="3"/>
<path d="M22.3216 12.2061V20.8508L15.2871 27.8947V12.2061H22.3216Z" fill="#B5D2D9" stroke="#B5D2D9" stroke-width="3"/>
<rect x="32.4824" y="22.772" width="6.25287" height="5.12281" fill="#9BA1CD"/>
<rect x="43.4249" y="22.772" width="6.25287" height="5.12281" fill="#9BA1CD"/>
<rect x="32.4824" y="33.0176" width="6.25287" height="5.12281" fill="#9BA1CD"/>
<rect x="43.4248" y="33.0176" width="6.25287" height="5.12281" fill="#9BA1CD"/>
<path d="M12.0098 60.2308C12.0098 59.8988 11.9577 59.6058 11.8535 59.3519C11.7559 59.0915 11.5801 58.8571 11.3262 58.6488C11.0788 58.4405 10.7337 58.2419 10.291 58.0531C9.85482 57.8643 9.30143 57.6722 8.63086 57.4769C7.92773 57.2686 7.29297 57.0375 6.72656 56.7836C6.16016 56.5232 5.67513 56.2269 5.27148 55.8949C4.86784 55.5629 4.55859 55.182 4.34375 54.7523C4.12891 54.3226 4.02148 53.8311 4.02148 53.2777C4.02148 52.7243 4.13542 52.2133 4.36328 51.7445C4.59115 51.2758 4.91667 50.8689 5.33984 50.5238C5.76953 50.1722 6.2806 49.8988 6.87305 49.7035C7.46549 49.5082 8.1263 49.4105 8.85547 49.4105C9.92318 49.4105 10.8281 49.6156 11.5703 50.0258C12.319 50.4294 12.8887 50.96 13.2793 51.6176C13.6699 52.2686 13.8652 52.9652 13.8652 53.7074H11.9902C11.9902 53.1735 11.8763 52.7015 11.6484 52.2914C11.4206 51.8747 11.0755 51.5492 10.6133 51.3148C10.151 51.0739 9.5651 50.9535 8.85547 50.9535C8.1849 50.9535 7.63151 51.0544 7.19531 51.2562C6.75911 51.458 6.43359 51.7315 6.21875 52.0765C6.01042 52.4216 5.90625 52.8155 5.90625 53.2582C5.90625 53.5577 5.9681 53.8311 6.0918 54.0785C6.22201 54.3194 6.42057 54.544 6.6875 54.7523C6.96094 54.9607 7.30599 55.1527 7.72266 55.3285C8.14583 55.5043 8.65039 55.6735 9.23633 55.8363C10.0436 56.0642 10.7402 56.3181 11.3262 56.598C11.9121 56.878 12.3939 57.1937 12.7715 57.5453C13.1556 57.8903 13.4388 58.2842 13.6211 58.7269C13.8099 59.1631 13.9043 59.6579 13.9043 60.2113C13.9043 60.7907 13.7871 61.3148 13.5527 61.7836C13.3184 62.2523 12.9831 62.6527 12.5469 62.9847C12.1107 63.3168 11.5866 63.5739 10.9746 63.7562C10.3691 63.932 9.69206 64.0199 8.94336 64.0199C8.28581 64.0199 7.63802 63.9288 7 63.7465C6.36849 63.5642 5.79232 63.2907 5.27148 62.9261C4.75716 62.5616 4.34375 62.1123 4.03125 61.5785C3.72526 61.0381 3.57227 60.4131 3.57227 59.7035H5.44727C5.44727 60.1918 5.54167 60.6117 5.73047 60.9633C5.91927 61.3083 6.17643 61.5948 6.50195 61.8226C6.83398 62.0505 7.20833 62.2198 7.625 62.3304C8.04818 62.4346 8.48763 62.4867 8.94336 62.4867C9.60091 62.4867 10.1576 62.3955 10.6133 62.2133C11.069 62.031 11.4141 61.7705 11.6484 61.432C11.8893 61.0935 12.0098 60.6931 12.0098 60.2308ZM24.857 53.2582V54.6449H19.1441V53.2582H24.857ZM21.0777 50.6898H22.8844V61.2074C22.8844 61.5655 22.9397 61.8357 23.0504 62.0179C23.1611 62.2002 23.3043 62.3207 23.4801 62.3793C23.6559 62.4379 23.8447 62.4672 24.0465 62.4672C24.1962 62.4672 24.3525 62.4541 24.5152 62.4281C24.6845 62.3955 24.8115 62.3695 24.8961 62.35L24.9059 63.8246C24.7626 63.8702 24.5738 63.9125 24.3395 63.9515C24.1116 63.9971 23.8349 64.0199 23.5094 64.0199C23.0667 64.0199 22.6598 63.932 22.2887 63.7562C21.9176 63.5804 21.6214 63.2875 21.4 62.8773C21.1852 62.4607 21.0777 61.9008 21.0777 61.1976V50.6898ZM37.841 61.3832V53.2582H39.6574V63.8246H37.9289L37.841 61.3832ZM38.1828 59.1566L38.9348 59.1371C38.9348 59.8402 38.8599 60.4913 38.7102 61.0902C38.5669 61.6827 38.3326 62.197 38.007 62.6332C37.6815 63.0694 37.2551 63.4112 36.7277 63.6586C36.2004 63.8995 35.5591 64.0199 34.8039 64.0199C34.2896 64.0199 33.8176 63.945 33.3879 63.7953C32.9647 63.6455 32.6001 63.4144 32.2941 63.1019C31.9882 62.7894 31.7505 62.3825 31.5812 61.8812C31.4185 61.3799 31.3371 60.7777 31.3371 60.0746V53.2582H33.1437V60.0941C33.1437 60.5694 33.1958 60.9633 33.3 61.2758C33.4107 61.5817 33.5572 61.8259 33.7395 62.0082C33.9283 62.184 34.1366 62.3077 34.3645 62.3793C34.5988 62.4509 34.8397 62.4867 35.0871 62.4867C35.8553 62.4867 36.4641 62.3402 36.9133 62.0472C37.3625 61.7478 37.6848 61.3474 37.8801 60.8461C38.0819 60.3383 38.1828 59.7751 38.1828 59.1566ZM53.4715 61.7738V48.8246H55.2879V63.8246H53.6277L53.4715 61.7738ZM46.3621 58.6586V58.4535C46.3621 57.6462 46.4598 56.9138 46.6551 56.2562C46.8569 55.5922 47.1401 55.0225 47.5047 54.5472C47.8758 54.072 48.3152 53.7074 48.823 53.4535C49.3374 53.1931 49.9103 53.0629 50.5418 53.0629C51.2059 53.0629 51.7853 53.1801 52.2801 53.4144C52.7814 53.6423 53.2046 53.9776 53.5496 54.4203C53.9012 54.8565 54.1779 55.3838 54.3797 56.0023C54.5815 56.6208 54.7215 57.3207 54.7996 58.1019V59.0004C54.728 59.7751 54.588 60.4717 54.3797 61.0902C54.1779 61.7087 53.9012 62.236 53.5496 62.6722C53.2046 63.1084 52.7814 63.4437 52.2801 63.6781C51.7788 63.906 51.1928 64.0199 50.5223 64.0199C49.9038 64.0199 49.3374 63.8864 48.823 63.6195C48.3152 63.3526 47.8758 62.9782 47.5047 62.4965C47.1401 62.0147 46.8569 61.4483 46.6551 60.7972C46.4598 60.1397 46.3621 59.4268 46.3621 58.6586ZM48.1785 58.4535V58.6586C48.1785 59.1859 48.2306 59.6807 48.3348 60.1429C48.4454 60.6052 48.6147 61.0121 48.8426 61.3636C49.0704 61.7152 49.3602 61.9919 49.7117 62.1937C50.0633 62.389 50.4832 62.4867 50.9715 62.4867C51.5704 62.4867 52.062 62.3597 52.4461 62.1058C52.8367 61.8519 53.1492 61.5166 53.3836 61.1C53.618 60.6833 53.8003 60.2308 53.9305 59.7426V57.389C53.8523 57.031 53.7384 56.6859 53.5887 56.3539C53.4454 56.0153 53.2566 55.7159 53.0223 55.4554C52.7944 55.1885 52.5112 54.9769 52.1727 54.8207C51.8406 54.6644 51.4467 54.5863 50.991 54.5863C50.4962 54.5863 50.0698 54.6905 49.7117 54.8988C49.3602 55.1006 49.0704 55.3806 48.8426 55.7386C48.6147 56.0902 48.4454 56.5004 48.3348 56.9691C48.2306 57.4314 48.1785 57.9261 48.1785 58.4535ZM65.4691 62.7308L68.4086 53.2582H70.3422L66.1039 65.4554C66.0062 65.7159 65.876 65.9958 65.7133 66.2953C65.557 66.6013 65.3552 66.891 65.1078 67.1644C64.8604 67.4379 64.5609 67.6592 64.2094 67.8285C63.8643 68.0043 63.4509 68.0922 62.9691 68.0922C62.8259 68.0922 62.6436 68.0726 62.4223 68.0336C62.2009 67.9945 62.0447 67.962 61.9535 67.9359L61.9437 66.4711C61.9958 66.4776 62.0772 66.4841 62.1879 66.4906C62.3051 66.5036 62.3865 66.5101 62.432 66.5101C62.8422 66.5101 63.1905 66.4548 63.477 66.3441C63.7634 66.2399 64.0043 66.0609 64.1996 65.807C64.4014 65.5596 64.574 65.2178 64.7172 64.7816L65.4691 62.7308ZM63.3109 53.2582L66.0551 61.4613L66.5238 63.3656L65.225 64.0297L61.3383 53.2582H63.3109ZM76.6465 49.6058H81.3535C82.4212 49.6058 83.3229 49.7686 84.0586 50.0941C84.8008 50.4196 85.3639 50.9014 85.748 51.5394C86.1387 52.1709 86.334 52.9489 86.334 53.8734C86.334 54.5245 86.2005 55.1202 85.9336 55.6605C85.6732 56.1944 85.2956 56.6501 84.8008 57.0277C84.3125 57.3988 83.7266 57.6755 83.043 57.8578L82.5156 58.0629H78.0918L78.0723 56.5297H81.4121C82.0892 56.5297 82.6523 56.4125 83.1016 56.1781C83.5508 55.9372 83.8893 55.6149 84.1172 55.2113C84.3451 54.8077 84.459 54.3617 84.459 53.8734C84.459 53.3265 84.3516 52.848 84.1367 52.4379C83.9219 52.0277 83.5833 51.712 83.1211 51.4906C82.6654 51.2627 82.0762 51.1488 81.3535 51.1488H78.5312V63.8246H76.6465V49.6058ZM84.957 63.8246L81.5 57.3793L83.4629 57.3695L86.9688 63.7074V63.8246H84.957ZM97.482 64.0199C96.7464 64.0199 96.079 63.8962 95.4801 63.6488C94.8876 63.3949 94.3766 63.0401 93.9469 62.5844C93.5237 62.1286 93.1982 61.5883 92.9703 60.9633C92.7424 60.3383 92.6285 59.6547 92.6285 58.9125V58.5023C92.6285 57.6429 92.7555 56.878 93.0094 56.2074C93.2633 55.5303 93.6083 54.9574 94.0445 54.4886C94.4807 54.0199 94.9755 53.6651 95.5289 53.4242C96.0823 53.1833 96.6552 53.0629 97.2477 53.0629C98.0029 53.0629 98.6539 53.1931 99.2008 53.4535C99.7542 53.7139 100.207 54.0785 100.558 54.5472C100.91 55.0095 101.17 55.5564 101.339 56.1879C101.509 56.8129 101.593 57.4965 101.593 58.2386V59.0492H93.7027V57.5746H99.7867V57.4379C99.7607 56.9691 99.663 56.5134 99.4938 56.0707C99.331 55.628 99.0706 55.2634 98.7125 54.9769C98.3544 54.6905 97.8661 54.5472 97.2477 54.5472C96.8375 54.5472 96.4599 54.6351 96.1148 54.8109C95.7698 54.9802 95.4736 55.2341 95.2262 55.5726C94.9788 55.9112 94.7867 56.3246 94.65 56.8129C94.5133 57.3011 94.4449 57.8643 94.4449 58.5023V58.9125C94.4449 59.4138 94.5133 59.8858 94.65 60.3285C94.7932 60.7647 94.9983 61.1488 95.2652 61.4808C95.5387 61.8129 95.8674 62.0733 96.2516 62.2621C96.6422 62.4509 97.0849 62.5453 97.5797 62.5453C98.2177 62.5453 98.7581 62.4151 99.2008 62.1547C99.6435 61.8942 100.031 61.5459 100.363 61.1097L101.457 61.9789C101.229 62.3239 100.939 62.6527 100.588 62.9652C100.236 63.2777 99.803 63.5316 99.2887 63.7269C98.7809 63.9222 98.1786 64.0199 97.482 64.0199ZM109.909 55.514V63.8246H108.103V53.2582H109.812L109.909 55.514ZM109.48 58.141L108.728 58.1117C108.734 57.389 108.842 56.7217 109.05 56.1097C109.258 55.4913 109.551 54.9541 109.929 54.4984C110.307 54.0427 110.756 53.6911 111.277 53.4437C111.804 53.1898 112.387 53.0629 113.025 53.0629C113.545 53.0629 114.014 53.1345 114.431 53.2777C114.848 53.4144 115.202 53.6358 115.495 53.9418C115.795 54.2478 116.023 54.6449 116.179 55.1332C116.335 55.6149 116.413 56.2041 116.413 56.9008V63.8246H114.597V56.8812C114.597 56.3278 114.515 55.8851 114.353 55.5531C114.19 55.2146 113.952 54.9704 113.64 54.8207C113.327 54.6644 112.943 54.5863 112.488 54.5863C112.038 54.5863 111.628 54.6807 111.257 54.8695C110.892 55.0583 110.577 55.3187 110.31 55.6508C110.049 55.9828 109.844 56.3636 109.695 56.7933C109.551 57.2165 109.48 57.6657 109.48 58.141ZM127.981 53.2582V54.6449H122.268V53.2582H127.981ZM124.202 50.6898H126.009V61.2074C126.009 61.5655 126.064 61.8357 126.175 62.0179C126.285 62.2002 126.429 62.3207 126.604 62.3793C126.78 62.4379 126.969 62.4672 127.171 62.4672C127.32 62.4672 127.477 62.4541 127.639 62.4281C127.809 62.3955 127.936 62.3695 128.02 62.35L128.03 63.8246C127.887 63.8702 127.698 63.9125 127.464 63.9515C127.236 63.9971 126.959 64.0199 126.634 64.0199C126.191 64.0199 125.784 63.932 125.413 63.7562C125.042 63.5804 124.746 63.2875 124.524 62.8773C124.309 62.4607 124.202 61.9008 124.202 61.1976V50.6898Z" fill="#B5D2D9"/>
<path d="M2 43.2632V74H132.529" stroke="#B5D2D9" stroke-width="3"/>
</svg>
